<?xml version="1.0" encoding="UTF-8"?>
<svg id="_图层_1" data-name="图层 1" xmlns="http://www.w3.org/2000/svg" viewBox="0 0 32 32">
  <defs>
    <style>
      .cls-1 {
        fill: none;
      }

      .cls-2 {
        fill: gray;
      }
    </style>
  </defs>
  <rect class="cls-1" width="32" height="32"/>
  <g>
    <path class="cls-2" d="M12.39,22.55h-7.65l-.02-.03L.91,15.93h7.65l3.7,6.41.05.08.02.03s.05.08.06.1Z"/>
    <g>
      <polygon class="cls-2" points="31.09 16.07 23.43 16.07 19.75 9.7 19.69 9.6 19.68 9.57 19.62 9.45 27.26 9.45 27.28 9.49 31.05 16 31.09 16.07"/>
      <polygon points="15.93 16 15.93 16.01 15.91 16 15.93 16"/>
    </g>
    <path class="cls-2" d="M23.56,22.48l-.02-.03-.03-.05-5.6-9.71-1.87-3.24h-7.65l.04.07.03.05.02.03,5.58,9.65.03.06.04.08,1.83,3.16h7.65s-.05-.07-.05-.07ZM15.93,16.01h-.02.02s0,0,0,0Z"/>
  </g>
</svg>