<?xml version="1.0" encoding="UTF-8"?>
<svg id="_图层_1" data-name="图层 1" xmlns="http://www.w3.org/2000/svg" viewBox="0 0 30.18 13.1">
  <defs>
    <style>
      .cls-1 {
        fill: none;
      }

      .cls-2 {
        fill: gray;
      }
    </style>
  </defs>
  <g>
    <path class="cls-1" d="M15,6.55h.02s0,0,0,0h-.02Z"/>
    <path class="cls-2" d="M11.48,13.1H3.83l-.02-.03L0,6.48h7.65l3.7,6.41.05.08.02.03s.05.08.06.1Z"/>
  </g>
  <g>
    <polygon class="cls-2" points="30.18 6.62 22.52 6.62 18.84 .25 18.78 .15 18.77 .12 18.71 0 26.35 0 26.37 .04 30.14 6.55 30.18 6.62"/>
    <polygon points="15.02 6.55 15.02 6.56 15 6.55 15.02 6.55"/>
  </g>
  <path class="cls-2" d="M22.65,13.03l-.02-.03-.03-.05-5.6-9.71-1.87-3.24h-7.65l.04.07.03.05.02.03,5.58,9.65.03.06.04.08,1.83,3.16h7.65l-.05-.07ZM15.02,6.56h-.02s.02-.01.02-.01h0Z"/>
</svg>